<svg xmlns="http://www.w3.org/2000/svg" viewBox="0 0 325.09 430.23"><defs><style>.cls-1{fill:#0060aa;}.cls-2{font-size:47.86px;fill:#1d71b8;font-family:Metropolis-ExtraLight, Metropolis;font-weight:200;}</style></defs><g id="Layer_2" data-name="Layer 2"><g id="Layer_1-2" data-name="Layer 1"><path class="cls-1" d="M322.85,338.78,257.36,198.69l-4.14-8.86a4.53,4.53,0,0,0-5.32-2.46l-27.76,7.7L97.56,228.93a4.17,4.17,0,0,1-.86.08,4.27,4.27,0,0,1-4.29-4.28,3.8,3.8,0,0,1,.09-.84v0l.4-1.1L153.85,56.43l.49-1.36a4.25,4.25,0,0,1,3.7-2.2,4,4,0,0,1,2.32.72s.06,0,.09,0l.69.61L192.36,80.1a4.56,4.56,0,0,0,7-5.44L170.11,12l-4.4-9.44a4.55,4.55,0,0,0-8.22,0L153.07,12v0L44.87,243.51,2,335.33a4.53,4.53,0,0,0,6.37,5.85L60.41,311.4h0L223,218.34a4.56,4.56,0,0,1,6.54,2.37L259,301.16a4.52,4.52,0,0,1-4.37,6.1l-73.94-2c-5.5-.15-6.48,7.78-1.13,9l91.74,20.54,46.41,10.39A4.56,4.56,0,0,0,322.85,338.78Z"/><text class="cls-2" transform="translate(0 417.3)">ARCHYSCRIPT</text></g></g></svg>